/vscmnt/brussel_pixiu_data/_data_brussel/112/vsc11236/PredSimResults/SUBJ07mtu3D/worker10.mot
version=1
nRows=11
nColumns=50
inDegrees=yes
endheader
                time	         pelvis_tilt	         pelvis_list	     pelvis_rotation	           pelvis_tx	           pelvis_ty	           pelvis_tz	       hip_flexion_r	     hip_adduction_r	      hip_rotation_r	        knee_angle_r	       ankle_angle_r	         mtp_angle_r	       hip_flexion_l	     hip_adduction_l	      hip_rotation_l	        knee_angle_l	       ankle_angle_l	         mtp_angle_l	    lumbar_extension	      lumbar_bending	     lumbar_rotation	 ercspn_r/activation	 intobl_r/activation	 extobl_r/activation	    abd_r/activation	    add_r/activation	hamstrings_r/activation	bifemsh_r/activation	glut_max_r/activation	iliopsoas_r/activation	rect_fem_r/activation	  vasti_r/activation	gastroc_r/activation	 soleus_r/activation	tib_ant_r/activation	 ercspn_l/activation	 intobl_l/activation	 extobl_l/activation	    abd_l/activation	    add_l/activation	hamstrings_l/activation	bifemsh_l/activation	glut_max_l/activation	iliopsoas_l/activation	rect_fem_l/activation	  vasti_l/activation	gastroc_l/activation	 soleus_l/activation	tib_ant_l/activation	
          1.08460750	         -4.34952630	          0.64928574	          7.47001324	          1.32322115	          0.85054578	         -0.01267727	         30.55720794	         -2.60185791	         -3.69559555	         -7.29100533	          5.03295762	          0.26664478	        -13.78687229	          1.44691781	          3.82551121	         -8.25975744	          8.79361107	         25.89708180	        -10.03668829	         -2.41939667	         -1.57587564	          0.12697337	          0.14982202	          0.01000014	          0.02910857	          0.12529386	          0.04829470	          0.07574262	          0.07149124	          0.01946450	          0.01180082	          0.01000011	          0.01000006	          0.01000002	          0.36189255	          0.11990941	          0.01000003	          0.01000005	          0.04008415	          0.01000011	          0.01000379	          0.13752640	          0.01703871	          0.12723611	          0.01180787	          0.01000012	          0.12389510	          0.27440862	          0.02038752	
          1.09545358	         -4.34130320	          0.69790790	          7.49042164	          1.33868091	          0.84904503	         -0.01254003	         30.26670640	         -2.40361689	         -3.27543253	         -8.57335117	          4.73207078	          0.25278858	        -14.34837919	          1.39709997	          3.51913093	         -9.13091443	          7.92928505	         27.46201961	         -9.91054710	         -2.03886701	         -1.80172446	          0.10753462	          0.12688534	          0.01000014	          0.02465226	          0.11381084	          0.04518183	          0.07169428	          0.12226137	          0.01648463	          0.01000034	          0.01000023	          0.01918670	          0.01394237	          0.37160984	          0.14001929	          0.01000005	          0.01000030	          0.03394753	          0.01599912	          0.01563866	          0.11647207	          0.01443031	          0.10775716	          0.01000047	          0.01000034	          0.10492757	          0.25675263	          0.01726632	
          1.10629965	         -4.32940025	          0.73584803	          7.46648044	          1.35428308	          0.84774407	         -0.01233953	         29.91728234	         -2.25177577	         -2.84710683	         -9.86395237	          4.41485930	          0.24830574	        -14.78712981	          1.34730875	          3.17848378	        -10.23102336	          6.95910801	         28.98702315	         -9.77533454	         -1.64058680	         -2.01911758	          0.13307641	          0.10746006	          0.01000008	          0.09955593	          0.12369313	          0.04598612	          0.08637652	          0.13230298	          0.01396096	          0.01000007	          0.01000001	          0.01624936	          0.01180789	          0.42001708	          0.15367083	          0.01000001	          0.01000009	          0.02875039	          0.01354981	          0.01324527	          0.09864101	          0.01222118	          0.09126031	          0.01000248	          0.01000013	          0.08886385	          0.23540275	          0.01462296	
          1.11714573	         -4.31600792	          0.78551804	          7.39904354	          1.36984518	          0.84680914	         -0.01204275	         29.58339830	         -2.11285087	         -2.49590835	        -11.14904239	          4.02232908	          0.22998282	        -15.02344814	          1.32208422	          2.81321147	        -11.67170677	          5.85368857	         30.43929690	         -9.65218619	         -1.25509390	         -2.22592089	          0.14053694	          0.09100864	          0.01000007	          0.14362544	          0.14965491	          0.04114007	          0.07315297	          0.15413067	          0.01182364	          0.01000018	          0.01000029	          0.01376172	          0.01000024	          0.43683711	          0.18854496	          0.01000002	          0.01000009	          0.02434889	          0.01418793	          0.01364788	          0.08353976	          0.01035031	          0.07728901	          0.01000233	          0.01078775	          0.07525938	          0.20340958	          0.01238428	
          1.12799180	         -4.30115788	          0.84171986	          7.29459123	          1.38524750	          0.84635455	         -0.01165111	         29.32219963	         -1.97503961	         -2.20199896	        -12.57401281	          3.80631907	          0.21392849	        -14.98978931	          1.31589052	          2.42674950	        -13.55343938	          4.62958752	         31.71415609	         -9.54853649	         -0.87971172	         -2.42269857	          0.15159444	          0.07707582	          0.01000007	          0.17696155	          0.17442049	          0.04117552	          0.06195386	          0.17223194	          0.01001354	          0.01000016	          0.02413314	          0.01165495	          0.01000013	          0.44252615	          0.21562792	          0.01000002	          0.01000008	          0.02062124	          0.03868508	          0.01385481	          0.07075042	          0.01000018	          0.06545661	          0.01000090	          0.01000091	          0.06373766	          0.17226891	          0.01048834	
          1.13883788	         -4.28557694	          0.90586842	          7.15525550	          1.40042233	          0.84646076	         -0.01118017	         29.10368378	         -1.84203787	         -1.96356860	        -14.06868460	          3.75121500	          0.19716418	        -14.62151858	          1.33165704	          2.00631608	        -15.97773979	          3.31630755	         32.63986918	         -9.46484766	         -0.51778414	         -2.60719617	          0.15342949	          0.06527602	          0.01000006	          0.19868375	          0.19518973	          0.04235046	          0.05246932	          0.17893897	          0.01000009	          0.01000017	          0.05271158	          0.01000020	          0.01000015	          0.43386210	          0.23940661	          0.01000002	          0.01000008	          0.01746426	          0.06709184	          0.01191550	          0.05991906	          0.01000005	          0.05543567	          0.01000029	          0.01000006	          0.05397984	          0.14589566	          0.01000002	
          1.14968395	         -4.27055044	          0.97825811	          6.98167325	          1.41534408	          0.84717083	         -0.01064484	         28.84663656	         -1.71246465	         -1.76936481	        -15.47704354	          3.84034473	          0.18392806	        -13.87043157	          1.36617271	          1.54178695	        -19.01162621	          1.91779313	         33.02735458	         -9.39710683	         -0.17158286	         -2.77626275	          0.15197996	          0.05528269	          0.01000006	          0.20586721	          0.20505591	          0.04433580	          0.04443690	          0.17876012	          0.01000014	          0.01000014	          0.07373211	          0.01000052	          0.01000041	          0.41377167	          0.24480496	          0.01000002	          0.01000009	          0.01479060	          0.09077174	          0.01086587	          0.05074591	          0.01000004	          0.04694887	          0.01000022	          0.01000004	          0.04571588	          0.12355999	          0.01000002	
          1.16053003	         -4.25737687	          1.05586059	          6.77516652	          1.43000989	          0.84845000	         -0.01005763	         28.48560133	         -1.58122577	         -1.60069260	        -16.67111924	          4.02863975	          0.17560823	        -12.71471327	          1.40788501	          1.04515294	        -22.65627629	          0.34128561	         32.81983231	         -9.34087833	          0.16100003	         -2.92680204	          0.13160685	          0.04681927	          0.01000006	          0.19899274	          0.20631553	          0.04942501	          0.03763439	          0.16812114	          0.01000013	          0.01000016	          0.09410957	          0.01000056	          0.01000022	          0.39327060	          0.24795449	          0.01000002	          0.01000008	          0.01252626	          0.10554912	          0.01002272	          0.04297713	          0.01000002	          0.03976133	          0.01000015	          0.01000001	          0.03871708	          0.10464376	          0.01000002	
          1.17137610	         -4.24736955	          1.13388614	          6.53665868	          1.44440997	          0.85020612	         -0.00941547	         27.98347099	         -1.44100905	         -1.43457734	        -17.57210109	          4.27987559	          0.17515616	        -11.16199597	          1.44358917	          0.54631295	        -26.83891001	         -1.51666953	         31.95872151	         -9.29609451	          0.48122411	         -3.05770706	          0.11145872	          0.03965155	          0.01000006	          0.19714389	          0.19581950	          0.05976997	          0.03187378	          0.14315268	          0.01000009	          0.01000012	          0.12509414	          0.01000015	          0.01000005	          0.37141132	          0.24053323	          0.01000001	          0.01000008	          0.01060857	          0.12261662	          0.01297687	          0.03639769	          0.01000001	          0.03367415	          0.01000009	          0.01000000	          0.03278975	          0.08862348	          0.02744546	
          1.18222218	         -4.24195798	          1.20842185	          6.26659901	          1.45850633	          0.85231970	         -0.00872866	         27.32174026	         -1.28604695	         -1.23709079	        -18.13895479	          4.59578589	          0.19302073	         -9.24930455	          1.47146539	          0.08431871	        -31.46041444	         -3.49657244	         30.06017638	         -9.26811554	          0.79172070	         -3.16694703	          0.09439513	          0.03358116	          0.01000010	          0.20873306	          0.17325352	          0.06753368	          0.02699482	          0.12123698	          0.01000008	          0.01000007	          0.13808599	          0.01000056	          0.01000013	          0.34250226	          0.24328687	          0.01750957	          0.01000014	          0.01000002	          0.11531860	          0.01581554	          0.03082549	          0.01646290	          0.02851888	          0.01000058	          0.01000061	          0.02776986	          0.07505580	          0.13132584	
          1.19306825	         -4.24172839	          1.26873165	          5.97141214	          1.47224221	          0.85462627	         -0.00802750	         26.53474867	         -1.11126434	         -0.99765430	        -18.42886796	          4.98086355	          0.24505075	         -7.06942131	          1.49905011	         -0.30729116	        -36.35843846	         -5.18368223	         26.87020552	         -9.26298744	          1.10302545	         -3.25503483	          0.07994386	          0.02844011	          0.01000009	          0.21479227	          0.14672979	          0.07240507	          0.02286237	          0.10267651	          0.01000006	          0.01000006	          0.15039458	          0.01000037	          0.01000009	          0.31566509	          0.25352461	          0.03124135	          0.01000197	          0.01394301	          0.09766408	          0.01339478	          0.02610642	          0.01394257	          0.02415286	          0.01000083	          0.01000004	          0.02351848	          0.06356524	          0.20201133	
